<?xml version="1.0" encoding="UTF-8"?>
<svg xmlns="http://www.w3.org/2000/svg" width="473.2" height="96.239" viewBox="0 0 369.667 75.182" class="looka-1j8o68f"><g fill="#e12d32" fill-rule="evenodd" clip-rule="evenodd"><path xmlns="http://www.w3.org/2000/svg" d="M87.045 9 68.347 23.93s-8.206 6.094-9.41 16.853l12.65-10.024A47.8 47.8 0 0 0 87.045 9M23.746 30.76l12.65 10.024c-1.204-10.76-9.41-16.852-9.41-16.852L8.286 9a47.8 47.8 0 0 0 15.46 21.76m23.92 34.65c-2.898-2.797-5.535-4.017-5.535-4.017L21.583 51.049A46 46 0 0 0 40.43 68.47l3.39 1.695a23.6 23.6 0 0 0-2.34 5.016l6.187-3.093 6.187 3.093a23.6 23.6 0 0 0-2.341-5.016l3.389-1.695A46 46 0 0 0 73.75 51.048L53.202 61.391s-2.638 1.22-5.535 4.018"/><path xmlns="http://www.w3.org/2000/svg" d="M64.042 40.892s-10.456 6.133-13.426 19.343l16.527-10.393a59.9 59.9 0 0 0 22.19-24.95zM44.717 60.235c-2.97-13.21-13.426-19.343-13.426-19.343L6 24.892a59.9 59.9 0 0 0 22.19 24.95z"/></g><path d="M117.888 30q4.803 0 7.535 2.882c2.731 2.881 2.752 4.502 2.791 7.744v18.55h-5.403v-16.99q0-3.301-1.71-5.222c-1.712-1.921-2.732-1.921-4.773-1.921q-3.783 0-5.854 2.521c-2.07 2.522-2.07 3.923-2.07 6.724v14.888H103V30.72h5.403v4.383h.12q1.14-2.402 3.692-3.752C114.767 30 115.808 30 117.888 30m31.518 0q6.543 0 10.175 4.112c3.632 4.112 3.653 6.514 3.692 11.316v1.501h-22.812q0 3.482 2.791 5.853c2.792 2.372 4.134 2.393 6.814 2.432q4.443 0 7.804-4.263l4.083 3.122q-4.563 5.823-12.607 5.823-6.544 0-10.536-4.172c-3.992-4.172-4.031-6.372-4.112-10.776q0-6.363 4.112-10.596c4.112-4.232 6.273-4.271 10.596-4.352m8.104 12.607q-.12-4.022-2.281-6.153c-2.161-2.132-3.422-2.132-5.943-2.132q-2.522 0-4.533 1.231c-2.01 1.23-2.392 1.882-3.152 3.182s-1.14 2.59-1.14 3.872zm17.65-11.887v17.05q0 3.362 1.77 5.223c1.772 1.86 2.753 1.86 4.713 1.86q3.783 0 5.854-2.49c2.07-2.492 2.07-3.912 2.07-6.754V30.72h5.404v28.456h-5.403v-4.382h-.12q-1.14 2.4-3.722 3.752c-2.582 1.35-3.602 1.35-5.643 1.35q-4.743 0-7.535-2.941c-2.791-2.942-2.791-4.524-2.791-7.684V30.72zm42.023-.72q1.5 0 2.401.36l-.24 5.823a10.5 10.5 0 0 0-2.701-.42q-7.985 0-8.105 8.885v14.528h-5.403V30.72h5.403v4.383h.12q1.08-2.281 3.482-3.692C214.542 30 215.421 30 217.183 30m20.831 0q6.304 0 10.686 4.352c4.383 4.353 4.404 6.433 4.443 10.596q0 6.304-4.383 10.566c-4.382 4.262-6.504 4.301-10.746 4.382q-6.243 0-10.625-4.322c-4.383-4.322-4.422-6.424-4.503-10.626q0-6.183 4.353-10.506c4.352-4.322 6.492-4.361 10.775-4.442m-9.365 14.948q0 4.383 2.582 7.114c2.581 2.732 3.983 2.753 6.783 2.792q4.263 0 6.784-2.732c2.522-2.731 2.543-4.211 2.582-7.174q0-4.382-2.522-7.114c-2.521-2.731-3.983-2.752-6.904-2.791q-4.262 0-6.783 2.821c-2.522 2.822-2.522 4.242-2.522 7.084M274.815 30q4.802 0 7.534 2.882c2.731 2.881 2.752 4.502 2.791 7.744v18.55h-5.403v-16.99q0-3.301-1.71-5.222c-1.711-1.921-2.732-1.921-4.773-1.921q-3.782 0-5.853 2.521c-2.072 2.522-2.072 3.923-2.072 6.724v14.888h-5.402V30.72h5.402v4.383h.12q1.141-2.402 3.693-3.752C271.693 30 272.735 30 274.815 30m23.893.72v17.05q0 3.362 1.77 5.223c1.772 1.86 2.753 1.86 4.713 1.86q3.782 0 5.854-2.49c2.07-2.492 2.07-3.912 2.07-6.754V30.72h5.404v28.456h-5.403v-4.382h-.12q-1.14 2.4-3.722 3.752c-2.582 1.35-3.602 1.35-5.643 1.35q-4.743 0-7.535-2.941c-2.791-2.942-2.791-4.524-2.791-7.684V30.72zM340.97 30q6.183 0 8.885 5.283 1.38-2.522 3.782-3.902C356.039 30 356.978 30 358.861 30q10.746 0 10.806 12.367v16.809h-5.403V43.027q0-4.202-1.501-6.093c-1.5-1.891-2.542-1.891-4.623-1.891q-3.662 0-5.463 2.221c-1.8 2.221-1.8 3.52-1.8 6.123v15.789h-5.403V43.868q0-5.043-1.441-6.934c-1.441-1.891-2.483-1.891-4.563-1.891q-3.362 0-5.373 2.581c-2.01 2.582-2.01 3.902-2.01 6.544v15.008h-5.404V30.72h5.043v4.443h.12q.9-2.101 3.572-3.632C338.089 30 339.05 30 340.971 30" fill="#e12d32"/></svg>